<svg xmlns="http://www.w3.org/2000/svg" width="40" height="40" fill="none" viewBox="0 0 40 40">
  <circle cx="20.185" cy="20.311" r="19.361" fill="#6E8F7B"/>
  <mask id="a" width="40" height="40" x="0" y="0" maskUnits="userSpaceOnUse" style="mask-type:alpha">
    <circle cx="20.185" cy="20.311" r="19.361" fill="#FED18F"/>
  </mask>
  <g mask="url(#a)">
    <path fill="#FFDFC1" d="M27.133 16.666a15.454 15.454 0 0 1-.488 3.873c-.984 3.741-3.353 6.377-6.118 6.377-2.134 0-4.031-1.57-5.239-4.006a12.64 12.64 0 0 1-.937-2.6 15.341 15.341 0 0 1-.43-3.644c0-.542-.28-1.188-.227-1.708.136-1.36.01-2.517.455-3.644.459-1.16.544-2.281 1.253-3.075 1.086-1.219 3.682-1.823 5.125-1.823 1.573 0 3.421.398 4.556 1.823 1.372 1.722 1.887 4.736 2.03 7.63.013.263.02.53.02.797Z"/>
    <path fill="#FFDFC1" d="M13.921 16.666s-.468-.421-.797-.341a.641.641 0 0 0-.455.341c-.13.233-.086.43 0 .684.09.27.35.304.455.57.13.33-.061.56 0 .91.066.375.147.585.342.912.146.244.185.478.455.569.16.053.43 0 .43 0a15.341 15.341 0 0 1-.43-3.645Zm13.192-.796a15.454 15.454 0 0 1-.33 4.1l.33-.115s.26-.35.361-.57c.126-.27.178-.388.228-.683.053-.31 0-.797 0-.797s-.073-.494 0-.797c.07-.29.228-.683.228-.683s.121-.383 0-.57c-.088-.134-.182-.211-.342-.228-.227-.023-.475.342-.475.342Zm-.468 4.669c-.984 3.741-3.353 6.377-6.118 6.377-2.134 0-4.031-1.57-5.239-4.006v4.006l-.228.456-.57.342-.569 1.594 1.14 1.936 2.733 2.164 5.694.797 4.214-1.024 1.595-1.937-2.184-3.872h-.664l.196-6.833Z"/>
    <path fill="#CEA465" d="M18.59 8.125h1.595s1.04-.095 1.708-.114c.49-.014.765-.03 1.253 0 .402.024.661-.059 1.025.114.257.122.45.197.57.455.111.243-.093.433 0 .684.076.208.198.285.341.455.203.24.483.267.57.57.048.17-.025.279 0 .455.046.336.164.509.341.797.15.243.346.307.456.57.154.37-.016.625 0 1.025.03.76-.063 1.232.228 1.936.136.332.455.797.455.797l.342-.341s.048-1.251 0-2.05c-.046-.76-.117-1.183-.228-1.937-.111-.76-.16-1.19-.342-1.936-.233-.956-.287-1.55-.797-2.391-.473-.781-.862-1.164-1.594-1.709-.607-.45-.995-.662-1.709-.91-.89-.311-1.448-.365-2.391-.343-.812.02-1.272.112-2.05.342-.992.294-1.521.58-2.392 1.139-.825.529-1.349.81-1.936 1.594-.501.67-.692 1.13-.911 1.937-.28 1.03-.228 1.594-.114 2.733.097.975-.01 1.534.114 2.505.09.719.341 1.937.341 1.937l.57.341s-.093-.876-.114-1.366c-.02-.445 0-1.14 0-1.14s-.154-.965.114-1.48c.074-.142.146-.203.227-.341.101-.172.153-.272.228-.456.255-.623.024-1.067.228-1.708.181-.569.282-.926.683-1.367.39-.43.703-.614 1.253-.797.718-.24 1.18 0 1.936 0Z"/>
    <path fill="#CEA465" fill-rule="evenodd" d="M24.74 20.539s-.276-.552-.569-.798c-.277-.232-.523-.294-.825-.37a6.787 6.787 0 0 1-.314-.085 6.768 6.768 0 0 0-1.025-.228 8.804 8.804 0 0 0-1.253-.114 7.442 7.442 0 0 1-.249-.013 2.82 2.82 0 0 0-.662.013c-.417.062-.911.247-1.139.342-.367.153-.797.342-.797.342s-.496.39-.683.683c-.152.237-.228.683-.228.683s-.496-.108-.797-.227l-.045-.018c-.456-.182-.75-.299-1.094-.666-.292-.312-.39-.563-.537-.942l-.033-.083a6.854 6.854 0 0 1-.228-.797s-.135 1.26 0 2.05c.078.452.185.741.32 1.104a20.56 20.56 0 0 1 .277.793c.15.453.267.806.542 1.292.279.491.495.751.837 1.162l.075.09c.102.124.195.24.284.35.396.495.696.87 1.31 1.245.493.302.81.411 1.367.57.817.232 1.316.292 2.164.227.635-.048 1.006-.097 1.594-.341.764-.318 1.13-.661 1.708-1.253.604-.618.865-1.05 1.253-1.822.36-.717.503-1.155.684-1.937.138-.601.168-.972.214-1.547l.013-.16c.087-1.065 0-2.734 0-2.734l-.455 1.366s-.2.734-.456 1.14c-.026.04-.05.08-.073.118-.143.231-.247.4-.496.565-.2.131-.57.227-.57.227l-.114-.227Zm-1.386.018c-.116-.189-.212-.346-.436-.474-.425-.242-1.253 0-1.253 0h-.91s-.844-.106-1.367 0l-.053.01c-.44.09-.733.15-1.086.446-.293.246-.474.426-.57.797-.067.258-.057.423 0 .683.09.41.233.662.57.911.16.119.265.17.455.228.055.017.113.037.172.058.304.106.635.221.74-.058 0 0-.029-.439 0-.57.04-.19.121-.215.248-.256a1.11 1.11 0 0 0 .207-.085c.186-.102.347-.042.523.023.119.044.244.091.388.091.111 0 .207-.04.299-.08.127-.053.245-.104.384-.034a2 2 0 0 0 .163.067c.171.064.373.14.407.275.088.352.09.352.205.343a.826.826 0 0 1 .136-.002c.231.018.369-.093.532-.224a3.252 3.252 0 0 1 .279-.205c.196-.133.35-.238.442-.482.094-.25.073-.426 0-.683a1.147 1.147 0 0 0-.232-.42 3.856 3.856 0 0 1-.11-.15 4.111 4.111 0 0 1-.133-.208Z" clip-rule="evenodd"/>
    <path fill="#565A65" d="M14.49 28.511c.091-.489.57-1.139.57-1.139s-1.754.795-2.847 1.367c-1.554.813-2.4 1.322-3.872 2.278-1.657 1.075-2.5 1.803-4.1 2.96-1.29.934-2.284 1.169-3.303 2.393-.6.72-.84 1.207-1.253 2.05-.378.77-.797 2.05-.797 2.05l44.872.569s.082-1.323 0-2.164c-.124-1.278-.272-2.017-.797-3.189-.293-.654-.507-1.002-.91-1.594-.676-.989-1.144-1.497-2.05-2.278-1.87-1.61-3.422-1.776-5.695-2.733-2.995-1.262-7.859-2.506-7.859-2.506v.797s.375.054.57.342c.401.596.585.996.683 1.708.13.942.022 1.57-.456 2.392-.72 1.24-1.799 1.467-3.189 1.822-1.292.33-2.102.23-3.416 0-1.205-.212-1.893-.427-2.961-1.025-.994-.556-2.278-1.822-2.278-1.822s-1.085-1.336-.911-2.278Z"/>
  </g>
</svg>
