<svg width="349" height="357" viewBox="0 0 349 357" fill="none" xmlns="http://www.w3.org/2000/svg">
<rect width="349" height="357" rx="50" fill="#171E52"/>
<ellipse cx="93.5" cy="158.5" rx="34.5" ry="52.5" fill="#C4FEFF"/>
<ellipse cx="255.5" cy="158.5" rx="34.5" ry="52.5" fill="#C4FEFF"/>
<path d="M146 224L150.132 230.618C150.96 231.943 151.888 233.202 152.91 234.384V234.384C155.446 237.318 158.523 239.737 161.973 241.51L162.849 241.961C164.363 242.739 165.948 243.37 167.582 243.845V243.845C172.427 245.252 177.573 245.252 182.418 243.845V243.845C184.052 243.37 185.637 242.739 187.151 241.961L187.692 241.683C191.364 239.795 194.649 237.233 197.374 234.131L198.5 232.848C200.843 230.513 203 226.87 203 226.87" stroke="#C4FEFF" stroke-width="14" stroke-linecap="round"/>
</svg>
