<svg xmlns="http://www.w3.org/2000/svg" width="77" height="24" fill="none" viewBox="0 0 77 24">
  <path fill="#4285F4" d="M9.581 8.564v2.563h6.187c-.164 1.418-.657 2.51-1.423 3.218-.876.873-2.3 1.855-4.764 1.855-3.777 0-6.734-3.054-6.734-6.818s2.902-6.818 6.734-6.818c2.026 0 3.56.818 4.654 1.854l1.807-1.8C14.509 1.145 12.428 0 9.582 0 4.38 0 0 4.2 0 9.382c0 5.182 4.38 9.382 9.581 9.382 2.793 0 4.928-.928 6.57-2.619 1.698-1.69 2.245-4.09 2.245-6 0-.6-.055-1.145-.11-1.581H9.582Z"/>
  <path fill="#EA4335" d="M26.061 6.436c-3.34 0-6.132 2.564-6.132 6.055 0 3.49 2.738 6.055 6.132 6.055 3.395 0 6.132-2.51 6.132-6 0-3.546-2.737-6.11-6.132-6.11Zm0 9.764c-1.861 0-3.449-1.527-3.449-3.654 0-2.182 1.588-3.655 3.45-3.655 1.86 0 3.448 1.473 3.448 3.655 0 2.127-1.587 3.654-3.449 3.654Z"/>
  <path fill="#4285F4" d="M56.01 7.8h-.11c-.602-.71-1.752-1.364-3.23-1.364-3.066 0-5.694 2.619-5.694 6.055 0 3.382 2.628 6.055 5.694 6.055 1.478 0 2.628-.655 3.23-1.364h.11v.873c0 2.29-1.26 3.545-3.23 3.545-1.643 0-2.629-1.146-3.067-2.182l-2.3.982c.658 1.582 2.465 3.6 5.421 3.6 3.12 0 5.804-1.855 5.804-6.327V6.763h-2.519V7.8h-.11Zm-3.066 8.4c-1.862 0-3.23-1.582-3.23-3.654 0-2.128 1.423-3.655 3.23-3.655 1.806 0 3.23 1.582 3.23 3.709.055 2.073-1.369 3.6-3.23 3.6Z"/>
  <path fill="#FBBC05" d="M39.694 6.436c-3.34 0-6.132 2.564-6.132 6.055 0 3.49 2.738 6.055 6.132 6.055 3.395 0 6.132-2.51 6.132-6 0-3.546-2.737-6.11-6.132-6.11Zm0 9.764c-1.861 0-3.45-1.527-3.45-3.654 0-2.182 1.589-3.655 3.45-3.655 1.862 0 3.45 1.473 3.45 3.655 0 2.127-1.588 3.654-3.45 3.654Z"/>
  <path fill="#34A853" d="M60.663.273h2.628V18.6h-2.628V.273Z"/>
  <path fill="#EA4335" d="M71.395 16.2c-1.37 0-2.3-.6-2.957-1.854l8.158-3.328-.274-.709c-.493-1.364-2.08-3.873-5.201-3.873-3.12 0-5.749 2.455-5.749 6.055 0 3.382 2.573 6.055 6.023 6.055 2.792 0 4.38-1.691 5.091-2.673l-2.08-1.364c-.712 1.037-1.643 1.691-3.011 1.691Zm-.165-7.473c1.095 0 2.026.546 2.3 1.31l-5.475 2.29c-.055-2.509 1.807-3.6 3.175-3.6Z"/>
</svg>
