<svg width="23" height="22" viewBox="0 0 23 22" fill="none" xmlns="http://www.w3.org/2000/svg">
<path fill-rule="evenodd" clip-rule="evenodd" d="M5.10823 0C3.85813 -9.21788e-08 2.65921 0.496475 1.77509 1.38026C0.89097 2.26404 0.394035 3.46277 0.393555 4.71286V17.2853C0.393555 18.5357 0.890278 19.7349 1.77445 20.6191C2.65862 21.5033 3.85782 22 5.10823 22H17.6807C18.9308 21.9995 20.1295 21.5026 21.0133 20.6185C21.8971 19.7343 22.3936 18.5354 22.3936 17.2853V4.71286C22.3931 3.46308 21.8964 2.26463 21.0127 1.3809C20.1289 0.497166 18.9305 0.000479855 17.6807 0H5.10823ZM19.0368 4.72011C19.0368 5.08025 18.8937 5.42564 18.6391 5.6803C18.3844 5.93495 18.039 6.07802 17.6789 6.07802C17.3187 6.07802 16.9734 5.93495 16.7187 5.6803C16.464 5.42564 16.321 5.08025 16.321 4.72011C16.321 4.35996 16.464 4.01457 16.7187 3.75992C16.9734 3.50526 17.3187 3.36219 17.6789 3.36219C18.039 3.36219 18.3844 3.50526 18.6391 3.75992C18.8937 4.01457 19.0368 4.35996 19.0368 4.72011ZM11.3963 7.23315C10.9017 7.23315 10.412 7.33056 9.95511 7.51982C9.4982 7.70907 9.08305 7.98647 8.73335 8.33617C8.38365 8.68587 8.10625 9.10103 7.91699 9.55793C7.72774 10.0148 7.63033 10.5045 7.63033 10.9991C7.63033 11.4936 7.72774 11.9834 7.91699 12.4403C8.10625 12.8972 8.38365 13.3123 8.73335 13.662C9.08305 14.0117 9.4982 14.2891 9.95511 14.4784C10.412 14.6676 10.9017 14.765 11.3963 14.765C12.3951 14.765 13.3529 14.3683 14.0592 13.662C14.7654 12.9558 15.1622 11.9979 15.1622 10.9991C15.1622 10.0003 14.7654 9.04242 14.0592 8.33617C13.3529 7.62992 12.3951 7.23315 11.3963 7.23315ZM5.81796 10.9991C5.81796 10.2668 5.9622 9.54163 6.24245 8.86506C6.5227 8.18849 6.93346 7.57374 7.45128 7.05592C7.96911 6.53809 8.58386 6.12733 9.26043 5.84708C9.937 5.56684 10.6621 5.4226 11.3945 5.4226C12.1268 5.4226 12.8519 5.56684 13.5285 5.84708C14.2051 6.12733 14.8198 6.53809 15.3376 7.05592C15.8555 7.57374 16.2662 8.18849 16.5465 8.86506C16.8267 9.54163 16.971 10.2668 16.971 10.9991C16.971 12.4781 16.3834 13.8965 15.3376 14.9423C14.2918 15.9881 12.8734 16.5756 11.3945 16.5756C9.91548 16.5756 8.49708 15.9881 7.45128 14.9423C6.40549 13.8965 5.81796 12.4781 5.81796 10.9991Z" fill="#2E2E2E"/>
</svg>
