<svg width="16" height="16" viewBox="0 0 16 16" fill="none" xmlns="http://www.w3.org/2000/svg">
<path d="M6.68337 1.28513C7.25137 0.238128 8.75437 0.238128 9.32137 1.28513L15.8214 13.2871C15.9447 13.5154 16.0067 13.7718 16.0013 14.0312C15.996 14.2907 15.9234 14.5443 15.7907 14.7672C15.658 14.9902 15.4697 15.175 15.2442 15.3034C15.0188 15.4319 14.7639 15.4997 14.5044 15.5001H1.50037C1.24044 15.5002 0.984944 15.4327 0.758944 15.3043C0.532945 15.1759 0.344195 14.9909 0.211201 14.7676C0.0782063 14.5443 0.00553242 14.2902 0.000303581 14.0303C-0.00492525 13.7704 0.0574705 13.5136 0.181374 13.2851L6.68337 1.28513ZM8.50237 6.00013C8.50237 5.86752 8.4497 5.74034 8.35593 5.64657C8.26216 5.55281 8.13498 5.50013 8.00237 5.50013C7.86977 5.50013 7.74259 5.55281 7.64882 5.64657C7.55505 5.74034 7.50237 5.86752 7.50237 6.00013V10.0001C7.50237 10.1327 7.55505 10.2599 7.64882 10.3537C7.74259 10.4474 7.86977 10.5001 8.00237 10.5001C8.13498 10.5001 8.26216 10.4474 8.35593 10.3537C8.4497 10.2599 8.50237 10.1327 8.50237 10.0001V6.00013ZM8.75237 12.2501C8.75237 12.0512 8.67336 11.8605 8.5327 11.7198C8.39205 11.5791 8.20129 11.5001 8.00237 11.5001C7.80346 11.5001 7.6127 11.5791 7.47204 11.7198C7.33139 11.8605 7.25237 12.0512 7.25237 12.2501C7.25237 12.449 7.33139 12.6398 7.47204 12.7805C7.6127 12.9211 7.80346 13.0001 8.00237 13.0001C8.20129 13.0001 8.39205 12.9211 8.5327 12.7805C8.67336 12.6398 8.75237 12.449 8.75237 12.2501Z" fill="#E8C92B"/>
</svg>
