<svg width="25" height="24" viewBox="0 0 25 24" fill="none" xmlns="http://www.w3.org/2000/svg">
<path fill-rule="evenodd" clip-rule="evenodd" d="M4.75719 0C3.59988 0 2.48997 0.459739 1.67163 1.27808C0.853294 2.09642 0.393555 3.20633 0.393555 4.36364V19.6364C0.393555 20.7937 0.853294 21.9036 1.67163 22.7219C2.48997 23.5403 3.59988 24 4.75719 24H20.0299C21.1872 24 22.2971 23.5403 23.1155 22.7219C23.9338 21.9036 24.3936 20.7937 24.3936 19.6364V4.36364C24.3936 3.20633 23.9338 2.09642 23.1155 1.27808C22.2971 0.459739 21.1872 0 20.0299 0H4.75719ZM12.3936 3.81818C10.9688 3.8177 9.56862 4.18928 8.33157 4.89614C7.09453 5.60299 6.06351 6.62063 5.34056 7.84833C4.6176 9.07604 4.22777 10.4712 4.20964 11.8959C4.19151 13.3205 4.54571 14.7252 5.23719 15.9709L4.50955 19.884L8.42374 19.1553C9.51598 19.761 10.7324 20.1086 11.9797 20.1714C13.2271 20.2343 14.4723 20.0108 15.6199 19.518C16.7675 19.0252 17.7871 18.2762 18.6005 17.3285C19.4139 16.3807 19.9995 15.2593 20.3124 14.0502C20.6254 12.8411 20.6574 11.5764 20.406 10.353C20.1546 9.12965 19.6264 7.98007 18.862 6.99238C18.0976 6.00468 17.1172 5.2051 15.996 4.65489C14.8748 4.10469 13.6425 3.81848 12.3936 3.81818ZM10.2696 7.50546C9.92046 7.488 9.27028 7.53164 8.78374 8.01818C7.99065 8.81127 7.98192 10.0571 8.29283 11.1895C8.60919 12.3425 9.28992 13.5185 10.0819 14.3105C10.8761 15.1036 12.051 15.7833 13.2041 16.1007C14.3365 16.4116 15.5823 16.4029 16.3754 15.6098C16.8619 15.1233 16.9056 14.4753 16.8881 14.124C16.8783 13.9784 16.8355 13.8369 16.7629 13.7103C16.6903 13.5836 16.5899 13.4752 16.4692 13.3931L15.4765 12.684C15.2615 12.5309 14.9992 12.4589 14.7361 12.4809C14.4731 12.5028 14.2263 12.6173 14.0397 12.804L13.5379 13.3047C13.1343 13.1389 12.483 12.8051 12.0357 12.3578C11.5885 11.9105 11.2546 11.2593 11.0899 10.8556L11.5906 10.3538C11.9757 9.96873 12.027 9.36109 11.7106 8.91709L11.0016 7.92436C10.9196 7.80347 10.8112 7.70283 10.6845 7.63006C10.5579 7.55729 10.4164 7.5143 10.2706 7.50436L10.2696 7.50546Z" fill="black"/>
</svg>
