<svg width="23" height="23" viewBox="0 0 23 23" fill="none" xmlns="http://www.w3.org/2000/svg">
<path d="M0 20.6706V1.72269C0 1.2658 0.181497 0.827629 0.504563 0.504563C0.827629 0.181497 1.2658 0 1.72269 0L20.6706 0C20.8969 0 21.1209 0.0445586 21.3299 0.131132C21.5389 0.217705 21.7288 0.344597 21.8887 0.504563C22.0487 0.664529 22.1756 0.854436 22.2622 1.06344C22.3488 1.27245 22.3933 1.49646 22.3933 1.72269V20.6706C22.3933 20.8969 22.3488 21.1209 22.2622 21.3299C22.1756 21.5389 22.0487 21.7288 21.8887 21.8887C21.7288 22.0487 21.5389 22.1756 21.3299 22.2622C21.1209 22.3488 20.8969 22.3933 20.6706 22.3933H15.5042V14.2277H16.7262C16.8642 14.2277 17.0009 14.2006 17.1284 14.1478C17.2559 14.0949 17.3717 14.0175 17.4693 13.92C17.5669 13.8224 17.6443 13.7065 17.6971 13.579C17.7499 13.4515 17.7771 13.3149 17.7771 13.1769V11.8525C17.7775 11.7143 17.7506 11.5775 17.698 11.4498C17.6453 11.3221 17.5679 11.2061 17.4702 11.1084C17.3726 11.0108 17.2565 10.9334 17.1289 10.8807C17.0012 10.828 16.8643 10.8012 16.7262 10.8016H15.5713V9.18126C15.5713 7.73369 16.2272 7.73369 16.8814 7.73369H17.7243C17.8631 7.73982 18.0015 7.71535 18.1298 7.662C18.258 7.60865 18.373 7.52773 18.4665 7.42498C18.5668 7.32951 18.6462 7.21424 18.6996 7.08648C18.753 6.95872 18.7793 6.82126 18.7768 6.6828V5.40958C18.7854 5.12613 18.6813 4.85081 18.4874 4.64394C18.2934 4.43707 18.0253 4.31552 17.7419 4.30591H15.7617C15.1836 4.28402 14.6077 4.38791 14.0737 4.6104C13.5397 4.83289 13.0604 5.16867 12.6689 5.59454C12.2774 6.02042 11.9831 6.52622 11.8062 7.077C11.6293 7.62777 11.5742 8.21039 11.6445 8.78458V10.8H10.5409C10.4015 10.7979 10.2631 10.8235 10.1338 10.8753C10.0044 10.9272 9.88669 11.0043 9.7874 11.1021C9.68812 11.1999 9.60927 11.3164 9.55547 11.445C9.50166 11.5735 9.47395 11.7115 9.47397 11.8509V13.1785C9.47416 13.3178 9.50207 13.4558 9.55608 13.5842C9.61008 13.7127 9.6891 13.8292 9.78853 13.9268C9.88797 14.0245 10.0058 14.1013 10.1353 14.153C10.2647 14.2047 10.4031 14.2301 10.5425 14.2277H11.6445V22.3933H1.72269C1.2658 22.3933 0.827629 22.2118 0.504563 21.8887C0.181497 21.5657 0 21.1275 0 20.6706Z" fill="#2E2E2E"/>
</svg>
