<svg width="23" height="23" viewBox="0 0 23 23" fill="none" xmlns="http://www.w3.org/2000/svg">
<path fill-rule="evenodd" clip-rule="evenodd" d="M4.50382 0C3.41371 0 2.36825 0.433044 1.59742 1.20387C0.826599 1.97469 0.393555 3.02015 0.393555 4.11026V18.4962C0.393555 19.5863 0.826599 20.6318 1.59742 21.4026C2.36825 22.1734 3.41371 22.6064 4.50382 22.6064H18.8897C19.9798 22.6064 21.0253 22.1734 21.7961 21.4026C22.567 20.6318 23 19.5863 23 18.4962V4.11026C23 3.02015 22.567 1.97469 21.7961 1.20387C21.0253 0.433044 19.9798 0 18.8897 0H4.50382ZM5.74203 7.10048C6.20669 7.10048 6.65232 6.91589 6.98089 6.58733C7.30945 6.25877 7.49403 5.81314 7.49403 5.34848C7.49403 4.88382 7.30945 4.43819 6.98089 4.10963C6.65232 3.78107 6.20669 3.59648 5.74203 3.59648C5.27738 3.59648 4.83175 3.78107 4.50318 4.10963C4.17462 4.43819 3.99003 4.88382 3.99003 5.34848C3.99003 5.81314 4.17462 6.25877 4.50318 6.58733C4.83175 6.91589 5.27738 7.10048 5.74203 7.10048ZM7.49301 19.01V8.50105H3.99003V19.01H7.49403H7.49301ZM12.0472 8.50105H8.89461V19.01H12.0472V12.6699C12.4531 12.0102 13.1539 11.3032 14.1485 11.3032C15.5501 11.3032 15.9005 12.7048 15.9005 13.4056V19.01H19.4035V13.4056C19.4035 11.5272 18.5846 8.50105 15.5501 8.50105C13.6204 8.50105 12.5497 9.20493 12.0462 9.86463V8.50105H12.0472Z" fill="black"/>
</svg>
