<?xml version="1.0" encoding="iso-8859-1"?>
<!-- Uploaded to: SVG Repo, www.svgrepo.com, Generator: SVG Repo Mixer Tools -->
<svg version="1.1" id="Layer_1" xmlns="http://www.w3.org/2000/svg" xmlns:xlink="http://www.w3.org/1999/xlink" 
	 viewBox="0 0 512 512" xml:space="preserve">
<path style="fill:#DD5ED7;" d="M127.478,33.134v60.422c0,23.65,19.172,42.822,42.822,42.822s42.822-19.172,42.822-42.822V33.134
	H127.478z"/>
<path style="fill:#CE1128;" d="M41.832,33.134v60.422c0,23.65,19.172,42.822,42.822,42.822s42.823-19.172,42.823-42.822V33.134
	H41.832z"/>
<path style="fill:#348E00;" d="M298.767,33.134v60.422c0,23.65,19.172,42.822,42.822,42.822c23.65,0,42.822-19.172,42.822-42.822
	V33.134H298.767z"/>
<path style="fill:#4281CD;" d="M213.123,33.134v60.422c0,23.65,19.172,42.822,42.822,42.822s42.822-19.172,42.822-42.822V33.134
	H213.123z"/>
<path style="fill:#FF772C;" d="M384.412,33.134v60.422c0,23.65,19.172,42.822,42.822,42.822c23.65,0,42.822-19.172,42.822-42.822
	V33.134H384.412z"/>
<rect x="30.302" y="318.704" style="fill:#C2EDFF;" width="451.396" height="160.914"/>
<path style="fill:#4281CD;" d="M276.776,251.05c-5.932,5.619-13.022,9.255-20.643,9.255s-14.711-3.635-20.643-9.255
	c-28.871,8.827-49.871,35.892-49.871,67.652h141.028C326.647,286.941,305.646,259.878,276.776,251.05z"/>
<path style="fill:#512917;" d="M216.303,190.288c0,7.534,2.759,11.385,11.155,11.385c5.584,0,51.349,0,51.349,0
	c12.982,0,23.505-10.523,23.505-23.505v-25.654c0,0-5.733,7.166-13.759,7.166h-54.776c-9.488,0-17.205,7.559-17.473,16.982
	l-0.011-0.059L216.303,190.288z"/>
<path style="fill:#FFFFFF;" d="M278.809,201.674c0,0-45.767,0-51.349,0c-3.033,0-5.322-0.51-7.019-1.508
	c-1.31,3.831-2.031,7.935-2.031,12.21c0,20.834,16.89,47.928,37.724,47.928c20.834,0,37.724-27.094,37.724-47.928
	c0-5.012-0.986-9.793-2.762-14.169C287.52,200.404,283.314,201.674,278.809,201.674z"/>
<path d="M279.349,377.557c-2.675,0-5.348-1.021-7.388-3.06c-4.08-4.08-4.08-10.697,0-14.778l0.097-0.097
	c4.081-4.079,10.696-4.079,14.778,0c4.08,4.08,4.08,10.697,0,14.778l-0.097,0.097C284.697,376.536,282.023,377.557,279.349,377.557z
	"/>
<path d="M501.551,469.168h-9.404V318.702c0-5.77-4.679-10.449-10.449-10.449h-1.192V93.556V33.134v-0.75
	c0-5.77-4.679-10.449-10.449-10.449H41.796c-5.77,0-10.449,4.679-10.449,10.449v275.87h-1.045c-5.77,0-10.449,4.679-10.449,10.449
	v150.465h-9.404C4.678,469.168,0,473.847,0,479.616c0,5.77,4.678,10.449,10.449,10.449h491.102c5.77,0,10.449-4.679,10.449-10.449
	C512,473.847,507.321,469.168,501.551,469.168z M278.809,191.225h-51.35c-0.255,0-0.482-0.006-0.682-0.016
	c-0.015-0.26-0.023-0.565-0.023-0.921c0-0.003,0-0.005,0-0.008l-0.01-13.122c0.004-0.066,0.006-0.134,0.008-0.201
	c0.109-3.829,3.196-6.827,7.029-6.827h54.776c1.139,0,2.242-0.08,3.309-0.228v8.266
	C291.864,185.367,286.008,191.225,278.809,191.225z M283.408,212.377c0,16.018-13.484,37.479-27.276,37.479
	c-13.792,0-27.276-21.461-27.276-37.479c0-0.085,0.009-0.169,0.01-0.254h49.942c1.556,0,3.085-0.115,4.585-0.319
	C283.398,211.995,283.408,212.185,283.408,212.377z M233.374,262.903c7.023,5.123,14.781,7.851,22.759,7.851
	s15.736-2.727,22.759-7.851c18.993,7.826,32.785,25.193,36.38,45.351H196.994C200.589,288.096,214.381,270.729,233.374,262.903z
	 M293.64,246.777c6.722-10.579,10.665-23.154,10.665-34.4c0-3.576-0.403-7.101-1.178-10.548c5.955-6.12,9.634-14.467,9.634-23.661
	v-25.654c0-4.489-2.781-8.588-7.036-10.016c-4.239-1.423-8.822-0.102-11.536,3.443c-0.934,1.072-3.541,3.29-5.635,3.29h-54.776
	c-14.964,0-27.068,11.515-27.886,26.359c-0.032,0.335-0.049,0.677-0.049,1.023l0.01,13.685c0.001,5.042,1.054,9.29,3.039,12.67
	c-0.616,3.092-0.934,6.238-0.934,9.409c0,11.246,3.944,23.821,10.665,34.4c-10.612,5.596-20.018,13.558-27.262,23.24
	c-8.484,11.339-13.755,24.397-15.521,38.237H52.245v-172.46c8.986,6.912,20.223,11.035,32.411,11.035
	c17.532,0,33.109-8.517,42.822-21.626c9.713,13.11,25.291,21.626,42.822,21.626s33.109-8.517,42.822-21.626
	c9.713,13.11,25.291,21.626,42.822,21.626s33.109-8.517,42.822-21.626c9.713,13.11,25.291,21.626,42.822,21.626
	s33.109-8.517,42.822-21.626c9.713,13.11,25.291,21.626,42.822,21.626c12.17,0,23.393-4.112,32.373-11.006v172.432h-123.18
	c-1.766-13.84-7.037-26.898-15.521-38.237C313.659,260.334,304.252,252.373,293.64,246.777z M309.217,42.832h64.747v50.724
	c0,17.851-14.522,32.373-32.373,32.373s-32.374-14.522-32.374-32.373V42.832z M223.572,42.832h64.747v50.724
	c0,17.851-14.522,32.373-32.373,32.373s-32.373-14.522-32.373-32.373V42.832H223.572z M137.927,42.832h64.747v50.724
	c0,17.851-14.522,32.373-32.373,32.373s-32.374-14.522-32.374-32.373V42.832z M52.281,42.832h64.747v50.724
	c0,17.851-14.522,32.373-32.373,32.373s-32.374-14.522-32.374-32.373V42.832z M459.608,93.556c0,17.851-14.522,32.373-32.373,32.373
	s-32.373-14.522-32.373-32.373V42.832h64.747v50.724H459.608z M192.068,469.168l70.767-70.767c4.08-4.08,4.08-10.697,0-14.778
	c-4.08-4.078-10.695-4.08-14.778,0l-85.545,85.544H40.751V329.15h1.045h370.118L271.897,469.166h-79.829V469.168z M471.249,469.168
	H301.452l140.017-140.016h28.587h1.192V469.168z"/>
</svg>