<!DOCTYPE svg PUBLIC "-//W3C//DTD SVG 1.1//EN" "http://www.w3.org/Graphics/SVG/1.1/DTD/svg11.dtd">
<!-- Uploaded to: SVG Repo, www.svgrepo.com, Transformed by: SVG Repo Mixer Tools -->
<svg height="800px" width="800px" version="1.1" id="Layer_1" xmlns="http://www.w3.org/2000/svg" xmlns:xlink="http://www.w3.org/1999/xlink" viewBox="0 0 512 512" xml:space="preserve" fill="#000000">
<g id="SVGRepo_bgCarrier" stroke-width="0"/>
<g id="SVGRepo_tracerCarrier" stroke-linecap="round" stroke-linejoin="round"/>
<g id="SVGRepo_iconCarrier"> <g> <path style="fill:#FF6600;" d="M39.472,187.8l144.672-74.512v21.52l-121.92,61.104v0.624l121.92,61.12v21.504L39.472,204.648V187.8 z"/> <path style="fill:#FF6600;" d="M204.496,291.624l86.976-226.048h21.2l-87.296,226.048H204.496z"/> <path style="fill:#FF6600;" d="M477.04,204.936l-144.672,74.208V257.64l122.848-61.12v-0.624l-122.848-61.104v-21.504 l144.672,74.208V204.936z"/> </g> <circle cx="68.256" cy="334.488" r="33.664"/> <path d="M66.656,446.424l-32.528-70.528c0,0-34.128,0.448-34.128,31.856c0,31.408,0,38.672,0,38.672S66.896,446.424,66.656,446.424z "/> <path d="M69.84,446.424l32.528-70.528c0,0,34.128,0.448,34.128,31.856c0,31.408,0,38.672,0,38.672S69.616,446.424,69.84,446.424z"/> <polygon style="fill:#22ACDD;" points="68.256,375.896 44.816,375.896 68.256,427.768 91.68,375.896 "/> <circle cx="256" cy="334.488" r="33.664"/> <path d="M254.4,446.424l-32.528-70.528c0,0-34.128,0.448-34.128,31.856c0,31.408,0,38.672,0,38.672S254.64,446.424,254.4,446.424z"/> <path d="M257.6,446.424l32.528-70.528c0,0,34.128,0.448,34.128,31.856c0,31.408,0,38.672,0,38.672S257.36,446.424,257.6,446.424z"/> <polygon style="fill:#22ACDD;" points="256,375.896 232.56,375.896 256,427.768 279.44,375.896 "/> <circle cx="443.744" cy="334.488" r="33.664"/> <path d="M442.16,446.424l-32.528-70.528c0,0-34.128,0.448-34.128,31.856c0,31.408,0,38.672,0,38.672S442.384,446.424,442.16,446.424 z"/> <path d="M445.344,446.424l32.528-70.528c0,0,34.128,0.448,34.128,31.856c0,31.408,0,38.672,0,38.672 S445.104,446.424,445.344,446.424z"/> <polygon style="fill:#22ACDD;" points="443.744,375.896 420.32,375.896 443.744,427.768 467.184,375.896 "/> </g>
</svg>