<svg xmlns="http://www.w3.org/2000/svg" width="42" height="42" fill="none" viewBox="0 0 42 42">
  <path fill="#fff" d="m.48 41.29 2.87-10.48A20.173 20.173 0 0 1 .65 20.7C.655 9.552 9.73.48 20.881.48a20.106 20.106 0 0 1 14.312 5.931 20.102 20.102 0 0 1 5.92 14.307c-.005 11.15-9.08 20.222-20.232 20.222a20.25 20.25 0 0 1-9.675-2.462L.48 41.29Zm11.222-6.474c2.851 1.692 5.573 2.706 9.173 2.708 9.267 0 16.817-7.54 16.822-16.81.003-9.287-7.51-16.816-16.809-16.82-9.274 0-16.819 7.54-16.822 16.807-.002 3.784 1.107 6.617 2.97 9.58l-1.7 6.204 6.366-1.669Zm19.37-9.29c-.125-.211-.462-.337-.969-.59-.505-.254-2.99-1.477-3.455-1.645-.462-.168-.8-.253-1.138.253-.337.505-1.306 1.645-1.6 1.981-.295.337-.59.38-1.096.126-.505-.253-2.135-.785-4.066-2.508-1.502-1.34-2.517-2.994-2.812-3.501-.294-.505-.03-.779.221-1.03.228-.227.506-.59.76-.886.256-.293.34-.504.51-.842.168-.337.085-.633-.043-.886-.128-.252-1.138-2.74-1.558-3.751-.412-.985-.829-.852-1.138-.867l-.97-.017c-.337 0-.884.126-1.347.632-.463.507-1.77 1.728-1.77 4.216 0 2.487 1.812 4.89 2.064 5.227.254.336 3.564 5.441 8.635 7.63 1.206.52 2.148.83 2.882 1.064 1.21.384 2.313.33 3.184.2.971-.144 2.99-1.222 3.413-2.402.422-1.182.422-2.194.294-2.405Z"/>
</svg>
